<svg xmlns="http://www.w3.org/2000/svg" width="44" height="44" fill="none" viewBox="0 0 44 44">
  <rect width="44" height="44" fill="#E6F0FF" rx="22"/>
  <path fill="#0B5CD5" d="M19.273 23.198c.966 0 1.75.784 1.75 1.75v4a1.75 1.75 0 0 1-1.75 1.75h-4a1.75 1.75 0 0 1-1.75-1.75v-4c0-.966.783-1.75 1.75-1.75h4Zm10 0c.966 0 1.75.784 1.75 1.75v4a1.75 1.75 0 0 1-1.75 1.75h-4a1.75 1.75 0 0 1-1.75-1.75v-4c0-.966.783-1.75 1.75-1.75h4Zm-14 1.5a.25.25 0 0 0-.25.25v4c0 .138.111.25.25.25h4a.25.25 0 0 0 .25-.25v-4a.25.25 0 0 0-.25-.25h-4Zm10 0a.25.25 0 0 0-.25.25v4c0 .138.111.25.25.25h4a.25.25 0 0 0 .25-.25v-4a.25.25 0 0 0-.25-.25h-4Zm-6-11.5c.966 0 1.75.784 1.75 1.75v4a1.75 1.75 0 0 1-1.75 1.75h-4a1.75 1.75 0 0 1-1.75-1.75v-4c0-.966.783-1.75 1.75-1.75h4Zm10 0c.966 0 1.75.784 1.75 1.75v4a1.75 1.75 0 0 1-1.75 1.75h-4a1.75 1.75 0 0 1-1.75-1.75v-4c0-.966.783-1.75 1.75-1.75h4Zm-14 1.5a.25.25 0 0 0-.25.25v4c0 .138.111.25.25.25h4a.25.25 0 0 0 .25-.25v-4a.25.25 0 0 0-.25-.25h-4Zm10 0a.25.25 0 0 0-.25.25v4c0 .138.111.25.25.25h4a.25.25 0 0 0 .25-.25v-4a.25.25 0 0 0-.25-.25h-4Z"/>
</svg>
